<svg xmlns="http://www.w3.org/2000/svg" viewBox="0 0 520 44"><defs><linearGradient id="ndv" x1="0" y1="0" x2="0" y2="1"><stop offset="0" stop-color="#EA9068"/><stop offset="0.5" stop-color="#C85B3B"/><stop offset="1" stop-color="#5E2614"/></linearGradient></defs><path fill-rule="evenodd" fill="url(#ndv)" d="M35.50 16.50L35.67 17.33L39.17 20.50L37.83 20.83L37.00 21.67L37.00 22.33L37.67 23.00L39.17 23.33L35.67 26.50L35.50 27.33L36.33 28.17L37.17 28.17L44.33 24.17L248.00 26.50L246.00 28.33L243.17 28.33L242.67 28.83L243.17 29.83L245.00 30.67L244.67 32.83L245.67 33.33L247.67 30.67L254.00 28.00L255.67 29.67L254.50 36.33L252.50 38.50L252.50 39.00L253.50 39.50L255.50 38.67L257.00 40.50L258.00 40.00L257.33 37.00L259.83 30.67L263.83 29.67L266.00 28.00L272.17 30.67L273.50 32.67L274.67 33.33L275.17 32.83L274.83 30.67L276.67 29.83L277.17 28.83L276.67 28.33L273.83 28.33L271.83 26.50L475.50 24.17L482.67 28.17L483.50 28.17L484.33 27.33L484.17 26.50L480.67 23.33L482.33 23.00L483.00 22.33L483.00 21.67L482.33 21.00L480.67 20.50L484.17 17.33L484.33 16.50L483.50 15.67L482.67 15.67L475.50 19.67L271.83 17.33L273.83 15.50L276.67 15.50L277.17 15.00L276.67 14.00L274.83 13.17L275.17 11.00L274.67 10.50L273.50 11.17L272.17 13.17L266.17 15.83L263.00 14.00L260.00 13.50L257.33 6.83L258.00 4.17L257.50 3.33L257.00 3.33L255.50 5.17L253.50 4.33L252.50 4.83L252.50 5.33L254.50 7.50L255.67 14.67L254.00 16.00L247.67 13.17L245.67 10.50L244.67 11.00L245.00 13.17L243.17 14.00L242.67 15.00L243.17 15.50L246.00 15.50L248.00 17.33L44.33 19.67L37.17 15.67L36.33 15.67ZM259.33 18.33L260.50 18.33L262.00 19.00L263.17 20.33L263.50 21.33L263.50 22.50L262.83 24.00L261.50 25.17L260.50 25.50L259.33 25.50L257.83 24.83L256.67 23.50L256.33 22.50L256.33 21.33L257.00 19.83L258.33 18.67Z"/></svg>